<svg xmlns="http://www.w3.org/2000/svg" xmlns:xlink="http://www.w3.org/1999/xlink" width="377" zoomAndPan="magnify" viewBox="0 0 282.96 283.499996" height="377" preserveAspectRatio="xMidYMid meet" version="1.0"><defs><clipPath id="ab90c7a695"><path d="M 48 2.703125 L 235 2.703125 L 235 280.464844 L 48 280.464844 Z M 48 2.703125 " clip-rule="nonzero"/></clipPath></defs><g clip-path="url(#ab90c7a695)"><path fill="#ffffff" d="M 141.632812 144.367188 C 114.488281 144.367188 92.484375 122.363281 92.484375 95.21875 C 92.484375 68.074219 114.488281 46.070312 141.632812 46.070312 C 168.777344 46.070312 190.78125 68.074219 190.78125 95.21875 C 190.78125 122.363281 168.777344 144.367188 141.632812 144.367188 Z M 141.632812 2.703125 C 90.535156 2.703125 45.417969 44.257812 49.117188 95.21875 C 49.507812 100.601562 50.894531 111.355469 52.230469 116.585938 C 53.878906 123.019531 58.667969 135.476562 61.496094 141.484375 C 78.558594 177.730469 141.632812 280.253906 141.632812 280.253906 C 141.632812 280.253906 204.789062 177.769531 221.765625 141.484375 C 224.578125 135.480469 229.253906 123.007812 230.902344 116.585938 C 232.246094 111.351562 233.742188 100.605469 234.148438 95.21875 C 237.996094 44.269531 192.726562 2.703125 141.632812 2.703125 " fill-opacity="1" fill-rule="nonzero"/></g></svg>