<svg xmlns="http://www.w3.org/2000/svg" xmlns:xlink="http://www.w3.org/1999/xlink" width="377" zoomAndPan="magnify" viewBox="0 0 282.96 283.499996" height="377" preserveAspectRatio="xMidYMid meet" version="1.0"><defs><clipPath id="152e8ab397"><path d="M 50 2.550781 L 233 2.550781 L 233 239 L 50 239 Z M 50 2.550781 " clip-rule="nonzero"/></clipPath><clipPath id="aa4698fbb8"><path d="M 22.578125 206 L 260.660156 206 L 260.660156 280.3125 L 22.578125 280.3125 Z M 22.578125 206 " clip-rule="nonzero"/></clipPath></defs><g clip-path="url(#152e8ab397)"><path fill="#ffffff" d="M 137.738281 237.1875 C 138.890625 238.160156 140.304688 238.644531 141.722656 238.644531 C 143.140625 238.644531 144.558594 238.160156 145.707031 237.1875 C 149.253906 234.191406 232.609375 162.976562 232.609375 93.4375 C 232.609375 43.320312 191.839844 2.550781 141.722656 2.550781 C 91.609375 2.550781 50.835938 43.320312 50.835938 93.4375 C 50.835938 162.976562 134.191406 234.191406 137.738281 237.1875 Z M 141.722656 14.898438 C 185.027344 14.898438 220.261719 50.132812 220.261719 93.4375 C 220.261719 149.027344 158.226562 209.195312 141.722656 224.214844 C 125.222656 209.195312 63.1875 149.027344 63.1875 93.4375 C 63.1875 50.132812 98.417969 14.898438 141.722656 14.898438 Z M 141.722656 14.898438 " fill-opacity="1" fill-rule="nonzero"/></g><path fill="#ffffff" d="M 186.488281 91.402344 C 186.488281 66.722656 166.40625 46.636719 141.722656 46.636719 C 117.039062 46.636719 96.957031 66.722656 96.957031 91.402344 C 96.957031 116.085938 117.039062 136.167969 141.722656 136.167969 C 166.40625 136.167969 186.488281 116.085938 186.488281 91.402344 Z M 109.308594 91.402344 C 109.308594 73.527344 123.847656 58.988281 141.722656 58.988281 C 159.597656 58.988281 174.140625 73.527344 174.140625 91.402344 C 174.140625 109.277344 159.597656 123.820312 141.722656 123.820312 C 123.847656 123.820312 109.308594 109.277344 109.308594 91.402344 Z M 109.308594 91.402344 " fill-opacity="1" fill-rule="nonzero"/><g clip-path="url(#aa4698fbb8)"><path fill="#ffffff" d="M 191.769531 206.171875 C 188.390625 205.675781 185.273438 208.054688 184.804688 211.4375 C 184.335938 214.8125 186.691406 217.933594 190.070312 218.402344 C 232.527344 224.304688 248.351562 235.777344 248.351562 241.625 C 248.351562 252.402344 206.820312 268.054688 141.738281 268.054688 C 76.636719 268.054688 35.09375 252.402344 35.09375 241.625 C 35.09375 235.796875 50.925781 224.339844 93.414062 218.402344 C 96.789062 217.929688 99.144531 214.808594 98.671875 211.433594 C 98.199219 208.054688 95.082031 205.671875 91.703125 206.171875 C 70.96875 209.066406 22.746094 218.324219 22.746094 241.625 C 22.746094 267.085938 82.605469 280.40625 141.738281 280.40625 C 200.855469 280.40625 260.703125 267.085938 260.703125 241.625 C 260.703125 218.273438 212.496094 209.050781 191.769531 206.171875 Z M 191.769531 206.171875 " fill-opacity="1" fill-rule="nonzero"/></g></svg>