<svg xmlns="http://www.w3.org/2000/svg" xmlns:xlink="http://www.w3.org/1999/xlink" width="377" zoomAndPan="magnify" viewBox="0 0 283.5 283.500005" height="377" preserveAspectRatio="xMidYMid meet" version="1.0"><defs><clipPath id="edc3aa1152"><path d="M 48 2.703125 L 235 2.703125 L 235 280.464844 L 48 280.464844 Z M 48 2.703125 " clip-rule="nonzero"/></clipPath></defs><g clip-path="url(#edc3aa1152)"><path fill="#ff914d" d="M 141.402344 144.367188 C 114.257812 144.367188 92.253906 122.363281 92.253906 95.21875 C 92.253906 68.074219 114.257812 46.070312 141.402344 46.070312 C 168.546875 46.070312 190.554688 68.074219 190.554688 95.21875 C 190.554688 122.363281 168.546875 144.367188 141.402344 144.367188 Z M 141.402344 2.703125 C 90.308594 2.703125 45.191406 44.257812 48.886719 95.21875 C 49.277344 100.601562 50.664062 111.355469 52.003906 116.585938 C 53.648438 123.019531 58.441406 135.476562 61.269531 141.484375 C 78.332031 177.730469 141.402344 280.253906 141.402344 280.253906 C 141.402344 280.253906 204.558594 177.769531 221.539062 141.484375 C 224.347656 135.480469 229.027344 123.007812 230.675781 116.585938 C 232.015625 111.351562 233.511719 100.605469 233.921875 95.21875 C 237.769531 44.269531 192.5 2.703125 141.402344 2.703125 " fill-opacity="1" fill-rule="nonzero"/></g></svg>