<svg xmlns="http://www.w3.org/2000/svg" xmlns:xlink="http://www.w3.org/1999/xlink" width="2400" zoomAndPan="magnify" viewBox="0 0 1800 1331.999939" height="1776" preserveAspectRatio="xMidYMid meet" version="1.0"><defs><clipPath id="0550119b7f"><path d="M 4.488281 0 L 1798.539062 0 L 1798.539062 1331.890625 L 4.488281 1331.890625 Z M 4.488281 0 " clip-rule="nonzero"/></clipPath></defs><g clip-path="url(#0550119b7f)"><path fill="#ffffff" d="M 117.648438 534.5625 C 86.886719 640.945312 60.421875 684.640625 59.929688 815.5 C 59.660156 929.808594 60.195312 1044.175781 60.011719 1158.671875 C 59.785156 1311.621094 70.644531 1331.394531 227.253906 1331.890625 C 389.363281 1332.464844 369.816406 1271.789062 370.351562 1128.734375 L 1431.160156 1127.769531 C 1432.351562 1265.628906 1413.480469 1332.464844 1567.519531 1331.890625 C 1787.492188 1331.394531 1741.4375 1290.84375 1741.640625 823.238281 C 1741.703125 697.105469 1719.054688 638.542969 1683.472656 534.5 C 1787.511719 530.929688 1913.28125 291.324219 1599.429688 340.316406 C 1582.816406 288.554688 1560.25 239.789062 1538.484375 188.925781 C 1511.21875 124.679688 1509.226562 103.386719 1465.203125 58.664062 C 1427.875 20.636719 1374.589844 4.804688 1314.613281 1.558594 L 1287.507812 -0.0195312 L 479.175781 2.546875 C 329.40625 3.859375 297.847656 107.367188 258.792969 199.214844 C 243.496094 234.898438 217.070312 314.609375 195.570312 338.796875 C -106.515625 293.277344 15.246094 530.640625 117.648438 534.5625 Z M 477.699219 920.15625 L 477.699219 761.886719 L 1325.390625 761.886719 L 1325.390625 920.15625 Z M 361.355469 866.234375 C 361.355469 918.410156 318.566406 960.832031 265.652344 960.875 C 212.820312 960.875 169.984375 918.453125 169.984375 866.234375 C 169.984375 814.019531 212.820312 771.332031 265.652344 771.332031 C 318.585938 771.332031 361.355469 814.019531 361.355469 866.234375 Z M 1633.164062 866.234375 C 1633.164062 918.410156 1590.1875 960.832031 1537.460938 960.875 C 1484.402344 960.875 1441.628906 918.453125 1441.628906 866.234375 C 1441.628906 814.019531 1484.402344 771.332031 1537.460938 771.332031 C 1590.1875 771.332031 1633.164062 814.019531 1633.164062 866.234375 Z M 489.523438 80.550781 C 548.1875 65.480469 836.742188 75.542969 921.152344 75.519531 C 1350.238281 75.519531 1347.035156 31.804688 1428.324219 227.898438 C 1449.558594 279.417969 1471.9375 332.042969 1492.636719 382.78125 C 1509.535156 424.933594 1564.253906 512.570312 1521.628906 543.945312 C 1489.988281 567.167969 522.542969 554.582031 432.214844 554.582031 C 225.507812 554.582031 233.949219 563.042969 320.699219 353.789062 C 370.78125 232.457031 400.390625 103.488281 489.523438 80.550781 " fill-opacity="1" fill-rule="evenodd"/></g></svg>