<svg xmlns="http://www.w3.org/2000/svg" xmlns:xlink="http://www.w3.org/1999/xlink" width="1728" zoomAndPan="magnify" viewBox="0 0 1296 1799.999925" height="2400" preserveAspectRatio="xMidYMid meet" version="1.0"><defs><clipPath id="0cceae0f4b"><path d="M 34 761 L 793 761 L 793 1797 L 34 1797 Z M 34 761 " clip-rule="nonzero"/></clipPath></defs><path fill="#00c438" d="M 871.171875 748.195312 L 1295.378906 1621.582031 L 1055.769531 1553.222656 L 961.367188 1783.839844 L 537.167969 910.449219 L 871.171875 748.195312 " fill-opacity="1" fill-rule="nonzero"/><g clip-path="url(#0cceae0f4b)"><path fill="#00c438" d="M 458.492188 761.5625 L 34.296875 1634.949219 L 273.90625 1566.589844 L 368.308594 1797.195312 L 792.507812 923.816406 L 458.492188 761.5625 " fill-opacity="1" fill-rule="nonzero"/></g><path fill="#008a40" d="M 1193.285156 638.480469 C 1210.480469 614.8125 1227.6875 591.132812 1244.882812 567.46875 C 1258.335938 548.9375 1246.335938 525.472656 1230.550781 514.007812 C 1209.125 498.445312 1187.710938 482.875 1166.285156 467.300781 C 1175.105469 440.164062 1183.914062 413.015625 1192.738281 385.867188 C 1199.554688 364.875 1184.855469 344.128906 1165.320312 337.792969 C 1139.417969 329.375 1113.523438 320.953125 1087.621094 312.535156 C 1087.621094 284.761719 1087.621094 256.972656 1087.621094 229.195312 C 1087.621094 207.992188 1070.179688 189.777344 1048.75 189.777344 C 1020.789062 189.777344 992.824219 189.777344 964.847656 189.777344 C 956.453125 163.9375 948.054688 138.101562 939.660156 112.261719 C 933.347656 92.816406 912.816406 77.746094 891.734375 84.585938 C 864.542969 93.429688 837.351562 102.261719 810.148438 111.097656 C 794.523438 89.589844 778.894531 68.082031 763.265625 46.578125 C 751.734375 30.691406 728.183594 19.203125 709.699219 32.628906 C 686.089844 49.789062 662.480469 66.941406 638.871094 84.09375 C 615.207031 66.898438 591.53125 49.691406 567.863281 32.492188 C 549.335938 19.035156 525.875 31.039062 514.410156 46.824219 C 498.847656 68.25 483.277344 89.679688 467.71875 111.097656 C 440.570312 102.273438 413.421875 93.464844 386.277344 84.640625 C 365.285156 77.824219 344.542969 92.535156 338.207031 112.058594 C 329.789062 137.964844 321.371094 163.871094 312.953125 189.777344 C 285.179688 189.777344 257.402344 189.777344 229.617188 189.777344 C 208.417969 189.777344 190.203125 207.210938 190.203125 228.636719 C 190.203125 256.605469 190.203125 284.582031 190.203125 312.546875 C 164.367188 320.945312 138.527344 329.339844 112.691406 337.738281 C 93.246094 344.050781 78.179688 364.582031 85.027344 385.664062 C 93.863281 412.859375 102.695312 440.0625 111.539062 467.257812 C 90.023438 482.886719 68.515625 498.515625 47.011719 514.144531 C 31.128906 525.6875 19.652344 549.242188 33.0625 567.714844 C 50.226562 591.324219 67.375 614.9375 84.527344 638.546875 C 67.332031 662.214844 50.136719 685.890625 32.941406 709.558594 C 19.472656 728.085938 31.472656 751.554688 47.257812 763.015625 C 68.683594 778.589844 90.113281 794.152344 111.539062 809.726562 C 102.714844 836.863281 93.894531 864.011719 85.074219 891.148438 C 78.257812 912.152344 92.964844 932.898438 112.488281 939.246094 C 138.394531 947.664062 164.296875 956.070312 190.203125 964.492188 C 190.203125 992.265625 190.203125 1020.054688 190.203125 1047.828125 C 190.203125 1069.03125 207.632812 1087.25 229.058594 1087.25 C 257.035156 1087.25 285 1087.25 312.964844 1087.25 C 321.359375 1113.085938 329.753906 1138.925781 338.152344 1164.765625 C 344.464844 1184.210938 365.007812 1199.28125 386.074219 1192.441406 C 413.265625 1183.597656 440.46875 1174.761719 467.660156 1165.929688 C 483.289062 1187.4375 498.917969 1208.953125 514.542969 1230.460938 C 526.085938 1246.347656 549.640625 1257.820312 568.109375 1244.398438 C 591.71875 1227.246094 615.328125 1210.085938 638.9375 1192.933594 C 662.605469 1210.140625 686.28125 1227.335938 709.957031 1244.53125 C 728.472656 1257.988281 751.9375 1246 763.410156 1230.214844 C 778.972656 1208.773438 794.53125 1187.359375 810.105469 1165.929688 C 837.25 1174.742188 864.386719 1183.5625 891.535156 1192.382812 C 912.523438 1199.203125 933.269531 1184.503906 939.617188 1164.964844 C 948.035156 1139.058594 956.453125 1113.152344 964.871094 1087.25 C 992.644531 1087.25 1020.417969 1087.25 1048.191406 1087.25 C 1069.394531 1087.25 1087.621094 1069.816406 1087.621094 1048.390625 C 1087.621094 1020.421875 1087.621094 992.445312 1087.621094 964.480469 C 1113.445312 956.082031 1139.28125 947.6875 1165.121094 939.289062 C 1184.566406 932.976562 1199.632812 912.441406 1192.78125 891.363281 C 1183.949219 864.167969 1175.117188 836.964844 1166.273438 809.769531 C 1187.789062 794.140625 1209.292969 778.511719 1230.808594 762.882812 C 1246.683594 751.339844 1258.167969 727.785156 1244.746094 709.3125 C 1227.597656 685.703125 1210.4375 662.089844 1193.285156 638.480469 " fill-opacity="1" fill-rule="nonzero"/><path fill="#ffffff" d="M 1211.902344 649.226562 C 1224.796875 631.472656 1237.695312 613.714844 1250.589844 595.96875 C 1263.375 578.382812 1276.292969 561.511719 1270.953125 538.382812 C 1266.230469 517.882812 1253.234375 504.054688 1236.710938 492.054688 C 1216.816406 477.601562 1196.921875 463.148438 1177.03125 448.695312 C 1180.355469 456.789062 1183.679688 464.882812 1187.015625 472.988281 C 1194.664062 449.457031 1202.296875 425.933594 1209.941406 402.402344 C 1216.535156 382.117188 1218.046875 364.761719 1207.445312 345.449219 C 1197.574219 327.460938 1179.058594 319.667969 1160.628906 313.6875 C 1138.183594 306.390625 1115.742188 299.089844 1093.285156 291.800781 C 1098.554688 298.765625 1103.839844 305.730469 1109.113281 312.691406 C 1109.113281 288.609375 1109.113281 264.542969 1109.113281 240.460938 C 1109.113281 219.246094 1105.765625 202.472656 1091.335938 186.25 C 1077.5 170.679688 1057.171875 168.273438 1037.726562 168.273438 C 1013.488281 168.273438 989.242188 168.273438 965.003906 168.273438 C 971.867188 173.589844 978.742188 178.894531 985.601562 184.214844 C 978.328125 161.824219 971.0625 139.421875 963.785156 117.03125 C 957.3125 97.113281 949.566406 82.089844 931.980469 69.953125 C 914.496094 57.875 894.019531 61.277344 875.292969 67.367188 C 851.726562 75.023438 828.160156 82.683594 804.585938 90.339844 C 812.625 93.632812 820.660156 96.921875 828.6875 100.214844 C 815.300781 81.777344 801.910156 63.335938 788.511719 44.910156 C 775.894531 27.535156 763.769531 14.1875 742.824219 7.292969 C 720.859375 0.0585938 702.535156 11.390625 685.542969 23.738281 C 666.355469 37.675781 647.179688 51.617188 627.992188 65.554688 C 635.199219 65.53125 642.410156 65.496094 649.617188 65.476562 C 631.863281 52.578125 614.121094 39.679688 596.367188 26.785156 C 578.777344 14 561.910156 1.078125 538.78125 6.417969 C 518.285156 11.144531 504.457031 24.152344 492.457031 40.667969 C 478.003906 60.558594 463.554688 80.453125 449.101562 100.347656 C 457.195312 97.023438 465.289062 93.699219 473.394531 90.363281 C 449.863281 82.714844 426.34375 75.082031 402.8125 67.433594 C 382.527344 60.839844 365.175781 59.328125 345.863281 69.929688 C 327.875 79.804688 320.082031 98.324219 314.105469 116.75 C 306.804688 139.195312 299.519531 161.644531 292.21875 184.101562 C 299.183594 178.816406 306.144531 173.542969 313.109375 168.273438 C 289.039062 168.273438 264.960938 168.273438 240.890625 168.273438 C 219.679688 168.273438 202.910156 171.617188 186.675781 186.050781 C 171.117188 199.886719 168.699219 220.21875 168.699219 239.664062 C 168.699219 263.914062 168.699219 288.152344 168.699219 312.390625 C 174.015625 305.527344 179.320312 298.652344 184.640625 291.789062 C 162.25 299.066406 139.859375 306.332031 117.472656 313.609375 C 97.554688 320.082031 82.53125 327.828125 70.386719 345.417969 C 58.320312 362.914062 61.710938 383.378906 67.800781 402.109375 C 75.457031 425.675781 83.113281 449.253906 90.773438 472.820312 C 94.0625 464.78125 97.355469 456.753906 100.644531 448.71875 C 82.21875 462.105469 63.78125 475.507812 45.34375 488.898438 C 27.96875 501.527344 14.625 513.640625 7.730469 534.585938 C 0.5 556.550781 11.828125 574.878906 24.175781 591.871094 C 38.113281 611.0625 52.050781 630.25 65.988281 649.429688 C 65.964844 642.21875 65.941406 635.007812 65.910156 627.800781 C 53.011719 645.554688 40.117188 663.3125 27.21875 681.054688 C 14.4375 698.644531 1.515625 715.515625 6.855469 738.644531 C 11.582031 759.144531 24.589844 772.96875 41.101562 784.972656 C 60.996094 799.425781 80.898438 813.878906 100.792969 828.332031 C 97.457031 820.238281 94.128906 812.144531 90.804688 804.046875 C 83.160156 827.570312 75.515625 851.09375 67.867188 874.625 C 61.273438 894.910156 59.761719 912.261719 70.363281 931.574219 C 80.238281 949.566406 98.753906 957.359375 117.179688 963.347656 C 139.625 970.636719 162.082031 977.9375 184.527344 985.222656 C 179.253906 978.273438 173.980469 971.308594 168.699219 964.332031 C 168.699219 988.414062 168.699219 1012.484375 168.699219 1036.554688 C 168.699219 1057.78125 172.046875 1074.542969 186.476562 1090.773438 C 200.324219 1106.335938 220.652344 1108.753906 240.085938 1108.753906 C 264.332031 1108.753906 288.570312 1108.753906 312.816406 1108.753906 C 305.945312 1103.4375 299.070312 1098.128906 292.207031 1092.8125 C 299.484375 1115.214844 306.761719 1137.59375 314.039062 1159.996094 C 320.507812 1179.914062 328.242188 1194.9375 345.832031 1207.074219 C 363.328125 1219.152344 383.800781 1215.75 402.519531 1209.671875 C 426.085938 1202 449.660156 1194.34375 473.226562 1186.6875 C 465.1875 1183.394531 457.160156 1180.101562 449.125 1176.8125 C 462.523438 1195.25 475.910156 1213.6875 489.300781 1232.128906 C 501.929688 1249.492188 514.039062 1262.835938 534.996094 1269.746094 C 556.960938 1276.964844 575.273438 1265.636719 592.28125 1253.289062 C 611.457031 1239.347656 630.644531 1225.410156 649.820312 1211.484375 C 642.609375 1211.507812 635.402344 1211.527344 628.191406 1211.550781 C 645.945312 1224.449219 663.703125 1237.34375 681.445312 1250.242188 C 699.042969 1263.027344 715.914062 1275.945312 739.03125 1270.617188 C 759.527344 1265.882812 773.363281 1252.882812 785.351562 1236.359375 C 799.804688 1216.464844 814.257812 1196.570312 828.722656 1176.675781 C 820.628906 1180.003906 812.523438 1183.328125 804.429688 1186.664062 C 827.949219 1194.308594 851.480469 1201.957031 875 1209.589844 C 895.285156 1216.1875 912.636719 1217.707031 931.945312 1207.09375 C 949.949219 1197.222656 957.726562 1178.703125 963.71875 1160.277344 C 971.003906 1137.828125 978.304688 1115.382812 985.601562 1092.925781 C 978.640625 1098.195312 971.675781 1103.46875 964.714844 1108.753906 C 988.78125 1108.753906 1012.863281 1108.753906 1036.929688 1108.753906 C 1058.144531 1108.753906 1074.914062 1105.40625 1091.132812 1090.976562 C 1106.707031 1077.136719 1109.113281 1056.808594 1109.113281 1037.359375 C 1109.113281 1013.113281 1109.113281 988.875 1109.113281 964.636719 C 1103.796875 971.5 1098.488281 978.371094 1093.171875 985.234375 C 1115.574219 977.957031 1137.949219 970.679688 1160.351562 963.40625 C 1180.265625 956.933594 1195.289062 949.199219 1207.425781 931.609375 C 1219.503906 914.121094 1216.101562 893.644531 1210.019531 874.914062 C 1202.351562 851.347656 1194.695312 827.78125 1187.039062 804.207031 C 1183.746094 812.242188 1180.457031 820.28125 1177.164062 828.308594 C 1195.601562 814.917969 1214.027344 801.519531 1232.464844 788.128906 C 1249.839844 775.5 1263.183594 763.386719 1270.082031 742.441406 C 1277.3125 720.476562 1265.984375 702.148438 1253.636719 685.140625 C 1239.699219 665.964844 1225.761719 646.773438 1211.824219 627.597656 C 1195.703125 605.410156 1158.425781 626.902344 1174.746094 649.363281 C 1184.398438 662.652344 1194.046875 675.929688 1203.695312 689.207031 C 1209.046875 696.582031 1214.410156 703.960938 1219.773438 711.339844 C 1223.691406 716.746094 1229.007812 721.773438 1229.128906 728.691406 C 1229.34375 741.824219 1210.121094 751.464844 1201.480469 757.746094 C 1186.121094 768.90625 1170.761719 780.066406 1155.390625 791.230469 C 1147.867188 796.691406 1142.371094 805.648438 1145.519531 815.332031 C 1151.40625 833.460938 1157.292969 851.59375 1163.195312 869.730469 C 1167.125 881.835938 1177.042969 897.898438 1170.203125 910.113281 C 1163.957031 921.253906 1144.488281 923.425781 1133.71875 926.917969 C 1116.5 932.515625 1099.273438 938.113281 1082.042969 943.710938 C 1072.941406 946.679688 1066.113281 954.390625 1066.113281 964.324219 C 1066.113281 982.960938 1066.113281 1001.613281 1066.113281 1020.265625 C 1066.113281 1033.085938 1070.066406 1050.550781 1060.574219 1060.738281 C 1051.832031 1070.117188 1031.769531 1065.753906 1020.574219 1065.753906 C 1002.058594 1065.753906 983.542969 1065.753906 965.015625 1065.753906 C 955.019531 1065.753906 947.136719 1072.300781 944.125 1081.570312 C 938.519531 1098.847656 932.910156 1116.109375 927.300781 1133.382812 C 923.382812 1145.417969 921.445312 1162.390625 910.183594 1170.015625 C 899.214844 1177.449219 880.957031 1166.367188 870.074219 1162.828125 C 851.972656 1156.949219 833.882812 1151.074219 815.78125 1145.195312 C 805.941406 1141.992188 797.03125 1147.546875 791.488281 1155.183594 C 781.480469 1168.953125 771.472656 1182.722656 761.464844 1196.503906 C 753.394531 1207.621094 745.667969 1223.453125 731.832031 1228.1875 C 720.390625 1232.09375 702.703125 1212.847656 694.074219 1206.570312 C 679.273438 1195.820312 664.484375 1185.074219 649.6875 1174.324219 C 644.089844 1170.261719 633.621094 1170.351562 628.058594 1174.394531 C 614.78125 1184.042969 601.492188 1193.695312 588.214844 1203.34375 C 580.839844 1208.707031 573.460938 1214.058594 566.085938 1219.421875 C 560.6875 1223.339844 555.652344 1228.667969 548.734375 1228.78125 C 535.601562 1228.992188 525.964844 1209.769531 519.695312 1201.140625 C 508.523438 1185.777344 497.371094 1170.40625 486.199219 1155.035156 C 480.738281 1147.523438 471.78125 1142.015625 462.097656 1145.160156 C 443.972656 1151.0625 425.839844 1156.949219 407.714844 1162.839844 C 395.601562 1166.769531 379.539062 1176.6875 367.324219 1169.847656 C 356.183594 1163.601562 354.011719 1144.144531 350.519531 1133.363281 C 344.921875 1116.132812 339.328125 1098.914062 333.730469 1081.683594 C 330.773438 1072.570312 323.058594 1065.753906 313.121094 1065.753906 C 294.480469 1065.753906 275.832031 1065.753906 257.179688 1065.753906 C 244.363281 1065.753906 226.898438 1069.703125 216.710938 1060.210938 C 207.332031 1051.457031 211.695312 1031.40625 211.695312 1020.199219 C 211.695312 1001.691406 211.695312 983.164062 211.695312 964.648438 C 211.695312 954.648438 205.148438 946.769531 195.878906 943.757812 C 178.605469 938.148438 161.34375 932.539062 144.070312 926.929688 C 132.035156 923.011719 115.074219 921.074219 107.441406 909.8125 C 100.007812 898.828125 111.089844 880.582031 114.628906 869.6875 C 120.503906 851.585938 126.394531 833.492188 132.269531 815.402344 C 135.460938 805.558594 129.910156 796.648438 122.285156 791.105469 C 108.503906 781.097656 94.734375 771.089844 80.964844 761.082031 C 69.847656 753.007812 54.019531 745.285156 49.285156 731.433594 C 45.378906 720.003906 64.621094 702.316406 70.902344 693.683594 C 81.648438 678.882812 92.394531 664.09375 103.140625 649.292969 C 107.207031 643.695312 107.117188 633.230469 103.074219 627.664062 C 93.425781 614.386719 83.777344 601.097656 74.125 587.820312 C 68.761719 580.441406 63.402344 573.066406 58.039062 565.6875 C 54.121094 560.289062 48.804688 555.253906 48.691406 548.332031 C 48.46875 535.203125 67.699219 525.5625 76.332031 519.28125 C 91.691406 508.121094 107.058594 496.957031 122.417969 485.796875 C 129.941406 480.332031 135.4375 471.375 132.292969 461.691406 C 126.40625 443.554688 120.515625 425.429688 114.628906 407.292969 C 110.6875 395.191406 100.769531 379.125 107.621094 366.910156 C 113.855469 355.773438 133.324219 353.601562 144.09375 350.109375 C 161.320312 344.511719 178.539062 338.914062 195.765625 333.316406 C 204.878906 330.347656 211.695312 322.632812 211.695312 312.703125 C 211.695312 294.050781 211.695312 275.410156 211.695312 256.761719 C 211.695312 243.941406 207.746094 226.464844 217.238281 216.289062 C 225.992188 206.894531 246.042969 211.273438 257.246094 211.273438 C 275.761719 211.273438 294.277344 211.273438 312.796875 211.273438 C 322.792969 211.273438 330.671875 204.710938 333.683594 195.453125 C 339.292969 178.179688 344.914062 160.90625 350.519531 143.640625 C 354.429688 131.605469 356.363281 114.644531 367.625 107.011719 C 378.609375 99.578125 396.867188 110.660156 407.746094 114.199219 C 425.847656 120.074219 443.941406 125.953125 462.042969 131.839844 C 471.871094 135.03125 480.78125 129.480469 486.324219 121.84375 C 496.332031 108.074219 506.339844 94.304688 516.347656 80.523438 C 524.417969 69.40625 532.152344 53.574219 545.988281 48.851562 C 557.417969 44.941406 575.105469 64.1875 583.75 70.457031 C 598.539062 81.214844 613.335938 91.964844 628.125 102.710938 C 633.722656 106.773438 644.1875 106.675781 649.765625 102.632812 C 663.042969 92.984375 676.316406 83.34375 689.59375 73.691406 C 696.972656 68.332031 704.347656 62.96875 711.738281 57.605469 C 717.132812 53.6875 722.160156 48.367188 729.078125 48.246094 C 742.210938 48.03125 751.859375 67.253906 758.128906 75.886719 C 769.289062 91.257812 780.449219 106.617188 791.609375 121.988281 C 797.074219 129.511719 806.042969 135.011719 815.714844 131.863281 C 833.847656 125.976562 851.972656 120.085938 870.109375 114.1875 C 882.210938 110.257812 898.273438 100.335938 910.488281 107.179688 C 921.625 113.425781 923.796875 132.882812 927.289062 143.664062 C 932.898438 160.882812 938.496094 178.113281 944.09375 195.34375 C 947.046875 204.457031 954.761719 211.273438 964.691406 211.273438 C 983.339844 211.273438 1001.992188 211.273438 1020.628906 211.273438 C 1033.449219 211.273438 1050.914062 207.320312 1061.097656 216.816406 C 1070.480469 225.570312 1066.113281 245.621094 1066.113281 256.828125 C 1066.113281 275.34375 1066.113281 293.863281 1066.113281 312.378906 C 1066.113281 322.375 1072.675781 330.257812 1081.933594 333.269531 C 1099.207031 338.878906 1116.480469 344.5 1133.742188 350.109375 C 1145.777344 354.015625 1162.746094 355.953125 1170.371094 367.226562 C 1177.804688 378.195312 1166.71875 396.457031 1163.183594 407.339844 C 1157.304688 425.441406 1151.429688 443.535156 1145.550781 461.636719 C 1142.351562 471.464844 1147.902344 480.378906 1155.539062 485.917969 C 1169.304688 495.929688 1183.074219 505.9375 1196.855469 515.945312 C 1207.972656 524.015625 1223.789062 531.753906 1228.527344 545.589844 C 1232.445312 557.023438 1213.191406 574.710938 1206.921875 583.351562 C 1196.171875 598.140625 1185.425781 612.941406 1174.667969 627.730469 C 1167.773438 637.226562 1173.191406 651.703125 1182.539062 657.097656 C 1193.476562 663.410156 1205.015625 658.699219 1211.902344 649.226562 " fill-opacity="1" fill-rule="nonzero"/><path fill="#fff5f5" d="M 1047.21875 638.511719 C 1047.21875 864.035156 864.410156 1046.867188 638.90625 1046.867188 C 413.402344 1046.867188 230.582031 864.035156 230.582031 638.511719 C 230.582031 412.992188 413.402344 230.171875 638.90625 230.171875 C 864.410156 230.171875 1047.21875 412.992188 1047.21875 638.511719 " fill-opacity="1" fill-rule="nonzero"/><path fill="#00c438" d="M 993.550781 638.511719 C 993.550781 834.386719 834.765625 993.183594 638.90625 993.183594 C 443.03125 993.183594 284.261719 834.386719 284.261719 638.511719 C 284.261719 442.636719 443.03125 283.84375 638.90625 283.84375 C 834.765625 283.84375 993.550781 442.636719 993.550781 638.511719 " fill-opacity="1" fill-rule="nonzero"/><path fill="#ffffff" d="M 557.363281 808.707031 C 557.25 808.796875 557.117188 808.917969 557.015625 808.984375 C 555.808594 807.351562 556.132812 807.472656 557.363281 808.707031 Z M 906.367188 507.449219 C 905.167969 506.609375 902.773438 504.90625 899.125 510.058594 C 876.050781 539.972656 852.5 576.667969 836.667969 588.167969 C 831.789062 592.289062 824.558594 594.648438 813.453125 609.59375 L 824.558594 594.636719 C 823.382812 593.765625 821.019531 592.019531 821.019531 592.019531 C 805.066406 611.085938 785.296875 635.066406 769.589844 654.03125 C 769.589844 654.03125 767.21875 652.292969 766.042969 651.433594 L 758.867188 661.316406 C 743.027344 665.304688 784.546875 611.34375 801.988281 585.613281 C 800.8125 584.742188 798.453125 582.996094 797.277344 582.109375 L 789.875 592.074219 L 787.515625 590.316406 C 804.597656 567.332031 819.476562 547.28125 835.371094 525.527344 C 834.195312 524.667969 832.996094 523.804688 829.359375 528.796875 C 843.992188 508.824219 863.390625 484.585938 875.011719 462.597656 C 877.292969 456.6875 870.242188 459.296875 858.410156 473.527344 C 847.707031 488.605469 840.476562 498.605469 829.550781 513.605469 L 827.175781 511.871094 C 834.464844 501.894531 846.5 487.746094 852.441406 476.851562 C 854.816406 470.984375 841.707031 484.320312 844.082031 478.453125 C 847.664062 473.4375 851.222656 468.433594 853.539062 462.566406 C 842.996094 477.613281 829.730469 498.445312 817.59375 512.53125 C 812.78125 516.640625 807.921875 520.75 805.570312 519.011719 C 788.476562 544.730469 770.152344 561.96875 753.179688 572.503906 C 748.601562 574.957031 737.550781 590.273438 727.601562 604.222656 C 693.210938 645.777344 663.78125 684.378906 629.378906 724.808594 L 616.550781 740.042969 C 614.882812 741.992188 611.769531 745.699219 609.183594 749.078125 C 606.933594 751.921875 604.996094 754.40625 602.925781 757.015625 C 599.96875 760.757812 597.027344 764.429688 594.082031 768.078125 C 565.558594 730.839844 527.25 686.609375 495.425781 650.984375 C 479.058594 632.859375 455.054688 628.066406 455.023438 628.125 C 448.910156 625.066406 440.480469 623.824219 441.957031 630.484375 C 448.382812 641.121094 467.371094 665.371094 462.804688 668.964844 C 461.660156 669.871094 457.832031 665.070312 454.003906 660.222656 C 449.402344 663.859375 428.726562 656.492188 424.910156 651.601562 C 418.742188 648.578125 389.042969 624.542969 382.90625 621.429688 C 368.0625 609.394531 384.664062 667.050781 396.675781 689.429688 C 402.050781 701.085938 390.886719 693.964844 387.429688 696.671875 C 396.25 705.628906 396.699219 713.265625 405.664062 722.1875 C 404.410156 723.128906 426.8125 753.488281 438.867188 768.144531 C 438.859375 768.15625 443.941406 772.128906 456.175781 786.683594 C 460.238281 791.554688 461.359375 790.601562 462.488281 789.664062 C 461.359375 790.601562 461.359375 790.601562 460.238281 791.554688 C 466.519531 794.53125 472.441406 806.132812 477.816406 809.972656 C 476.707031 810.933594 476.707031 810.933594 475.585938 811.898438 C 486.253906 819.554688 492.097656 831.230469 501.972656 839.71875 C 500.875 840.703125 500.875 840.703125 499.789062 841.675781 C 504.121094 846.445312 508.445312 851.203125 507.359375 852.1875 C 506.28125 853.183594 506.28125 853.183594 505.195312 854.171875 C 508.5 859.949219 519.257812 867.527344 517.230469 869.496094 C 518.304688 868.488281 518.304688 868.488281 519.371094 867.480469 C 528.4375 876.886719 536.105469 885.359375 543.089844 893.375 L 543.75 894.128906 C 544.402344 894.765625 542.753906 893.242188 545.285156 895.648438 C 549.359375 899.390625 554.675781 903.261719 561.148438 906.296875 C 574.078125 912.757812 591.183594 913.640625 602.625 910.550781 C 610.191406 908.535156 609.140625 908.492188 610.480469 908.066406 L 613.550781 906.746094 C 621.980469 903.015625 630.085938 896.746094 630.5 896.230469 C 635.894531 891.898438 638.792969 889.054688 641.246094 886.726562 C 646.484375 881.699219 650.269531 877.792969 654.0625 873.828125 C 673.820312 854.875 692.917969 828.96875 707.011719 810.117188 C 724.601562 787.324219 742.0625 763.0625 758.207031 739.160156 C 762.058594 734.066406 763.558594 727.238281 757.367188 730.539062 C 761.183594 725.433594 765.113281 720.464844 768.839844 715.203125 C 776.386719 704.789062 769.066406 707.398438 776.589844 697.007812 C 801.875 655.296875 832 615.773438 861.8125 575.785156 C 892.015625 534.339844 921 499.21875 949.410156 447.058594 C 932.441406 473.851562 919.980469 485.101562 906.367188 507.449219 " fill-opacity="1" fill-rule="nonzero"/><path fill="#ffffff" d="M 849.96875 505.476562 C 844.953125 512.40625 840.128906 519.035156 835.371094 525.527344 L 835.382812 525.539062 C 839.042969 520.535156 846.332031 510.503906 849.96875 505.476562 " fill-opacity="1" fill-rule="nonzero"/></svg>