<svg xmlns="http://www.w3.org/2000/svg" xmlns:xlink="http://www.w3.org/1999/xlink" width="2400" zoomAndPan="magnify" viewBox="0 0 1800 1799.999925" height="2400" preserveAspectRatio="xMidYMid meet" version="1.0"><path fill="#000000" d="M 899.742188 -0.171875 C 1396.710938 -0.171875 1799.574219 402.691406 1799.574219 899.65625 C 1799.574219 1396.625 1396.710938 1799.488281 899.742188 1799.488281 C 402.777344 1799.488281 -0.0859375 1396.625 -0.0859375 899.65625 C -0.0859375 402.691406 402.777344 -0.171875 899.742188 -0.171875 Z M 663.023438 774.070312 C 661.652344 683.984375 867.832031 634.535156 961.339844 659.257812 C 1198.316406 721.96875 855.257812 1273.347656 914.628906 1354.875 C 947.652344 1400.21875 1097.453125 1364.457031 1097.453125 1405.695312 C 1097.453125 1446.929688 995.730469 1554.125 822.492188 1518.449219 C 649.25 1482.691406 696.046875 1361.71875 719.402344 1264.105469 C 742.757812 1166.492188 843.109375 897.003906 843.109375 850.292969 C 843.109375 703.660156 660.714844 812.652344 662.9375 773.984375 Z M 1000.949219 273.59375 C 1075.722656 273.59375 1136.378906 334.25 1136.378906 409.019531 C 1136.378906 483.792969 1075.722656 544.449219 1000.949219 544.449219 C 926.179688 544.449219 865.523438 483.792969 865.523438 409.019531 C 865.523438 334.25 926.179688 273.59375 1000.949219 273.59375 Z M 1000.949219 273.59375 " fill-opacity="1" fill-rule="evenodd"/></svg>