<svg xmlns="http://www.w3.org/2000/svg" xmlns:xlink="http://www.w3.org/1999/xlink" width="6912" zoomAndPan="magnify" viewBox="0 0 5184 2592.000001" height="3456" preserveAspectRatio="xMidYMid meet" version="1.0"><defs><g/><clipPath id="75422619c1"><path d="M 4346.113281 1024.628906 L 5129.878906 1024.628906 L 5129.878906 1669.941406 L 4346.113281 1669.941406 Z M 4346.113281 1024.628906 " clip-rule="nonzero"/></clipPath><clipPath id="470df6370a"><path d="M 5129.878906 1347.285156 L 4737.996094 1024.628906 L 4737.996094 1220.570312 L 4346.113281 1220.570312 L 4346.113281 1474 L 4737.996094 1474 L 4737.996094 1669.941406 Z M 5129.878906 1347.285156 " clip-rule="nonzero"/></clipPath></defs><g fill="#ffffff" fill-opacity="1"><g transform="translate(7.870083, 1828.252099)"><g><path d="M 115.859375 0 L 115.859375 -249.53125 L 648.78125 -249.53125 C 672.539062 -249.53125 693.925781 -255.472656 712.9375 -267.359375 C 731.957031 -279.242188 747.109375 -294.691406 758.390625 -313.703125 C 769.679688 -332.710938 775.328125 -353.507812 775.328125 -376.09375 C 775.328125 -399.851562 769.679688 -421.238281 758.390625 -440.25 C 747.109375 -459.257812 731.957031 -474.707031 712.9375 -486.59375 C 693.925781 -498.476562 672.539062 -504.421875 648.78125 -504.421875 L 456.296875 -504.421875 C 383.804688 -504.421875 317.851562 -518.675781 258.4375 -547.1875 C 199.03125 -575.707031 151.800781 -617.59375 116.75 -672.84375 C 81.695312 -728.101562 64.171875 -794.351562 64.171875 -871.59375 C 64.171875 -947.644531 80.804688 -1013.59375 114.078125 -1069.4375 C 147.347656 -1125.289062 192.5 -1168.960938 249.53125 -1200.453125 C 306.570312 -1231.941406 369.550781 -1247.6875 438.46875 -1247.6875 L 989.21875 -1247.6875 L 989.21875 -998.140625 L 472.34375 -998.140625 C 450.945312 -998.140625 431.335938 -992.789062 413.515625 -982.09375 C 395.691406 -971.40625 382.023438 -957.148438 372.515625 -939.328125 C 363.015625 -921.503906 358.265625 -901.898438 358.265625 -880.515625 C 358.265625 -859.117188 363.015625 -839.804688 372.515625 -822.578125 C 382.023438 -805.347656 395.691406 -791.382812 413.515625 -780.6875 C 431.335938 -770 450.945312 -764.65625 472.34375 -764.65625 L 673.734375 -764.65625 C 753.347656 -764.65625 822.5625 -749.503906 881.375 -719.203125 C 940.195312 -688.898438 985.945312 -646.710938 1018.625 -592.640625 C 1051.300781 -538.578125 1067.640625 -475.304688 1067.640625 -402.828125 C 1067.640625 -317.265625 1050.707031 -244.476562 1016.84375 -184.46875 C 982.976562 -124.46875 937.523438 -78.722656 880.484375 -47.234375 C 823.453125 -15.742188 760.476562 0 691.5625 0 Z M 115.859375 0 "/></g></g></g><g fill="#ffffff" fill-opacity="1"><g transform="translate(1132.562667, 1828.252099)"><g><path d="M 442.03125 0 C 371.925781 0 308.351562 -16.335938 251.3125 -49.015625 C 194.28125 -81.691406 148.832031 -125.65625 114.96875 -180.90625 C 81.101562 -236.164062 64.171875 -298.847656 64.171875 -368.953125 C 64.171875 -421.242188 75.753906 -470.257812 98.921875 -516 C 122.097656 -561.75 153.289062 -601.257812 192.5 -634.53125 C 154.476562 -666.613281 124.472656 -704.640625 102.484375 -748.609375 C 80.503906 -792.578125 69.515625 -838.921875 69.515625 -887.640625 C 69.515625 -956.554688 86.148438 -1018.046875 119.421875 -1072.109375 C 152.691406 -1126.179688 197.25 -1168.960938 253.09375 -1200.453125 C 308.945312 -1231.941406 370.738281 -1247.6875 438.46875 -1247.6875 L 964.265625 -1247.6875 L 964.265625 -998.140625 L 484.8125 -998.140625 C 462.238281 -998.140625 441.441406 -992.789062 422.421875 -982.09375 C 403.410156 -971.40625 388.257812 -957.148438 376.96875 -939.328125 C 365.6875 -921.503906 360.046875 -900.707031 360.046875 -876.9375 C 360.046875 -854.363281 365.6875 -833.867188 376.96875 -815.453125 C 388.257812 -797.035156 403.410156 -782.773438 422.421875 -772.671875 C 441.441406 -762.566406 462.238281 -757.515625 484.8125 -757.515625 L 903.671875 -757.515625 L 903.671875 -507.984375 L 493.71875 -507.984375 C 468.769531 -507.984375 446.191406 -502.039062 425.984375 -490.15625 C 405.785156 -478.28125 389.742188 -462.832031 377.859375 -443.8125 C 365.984375 -424.800781 360.046875 -402.820312 360.046875 -377.875 C 360.046875 -354.101562 365.984375 -332.414062 377.859375 -312.8125 C 389.742188 -293.207031 405.785156 -278.054688 425.984375 -267.359375 C 446.191406 -256.660156 468.769531 -251.3125 493.71875 -251.3125 L 964.265625 -251.3125 L 964.265625 0 Z M 442.03125 0 "/></g></g></g><g fill="#ffffff" fill-opacity="1"><g transform="translate(2166.353216, 1828.252099)"><g><path d="M 442.03125 0 C 371.925781 0 308.351562 -16.335938 251.3125 -49.015625 C 194.28125 -81.691406 148.832031 -125.65625 114.96875 -180.90625 C 81.101562 -236.164062 64.171875 -298.847656 64.171875 -368.953125 C 64.171875 -421.242188 75.753906 -470.257812 98.921875 -516 C 122.097656 -561.75 153.289062 -601.257812 192.5 -634.53125 C 154.476562 -666.613281 124.472656 -704.640625 102.484375 -748.609375 C 80.503906 -792.578125 69.515625 -838.921875 69.515625 -887.640625 C 69.515625 -956.554688 86.148438 -1018.046875 119.421875 -1072.109375 C 152.691406 -1126.179688 197.25 -1168.960938 253.09375 -1200.453125 C 308.945312 -1231.941406 370.738281 -1247.6875 438.46875 -1247.6875 L 964.265625 -1247.6875 L 964.265625 -998.140625 L 484.8125 -998.140625 C 462.238281 -998.140625 441.441406 -992.789062 422.421875 -982.09375 C 403.410156 -971.40625 388.257812 -957.148438 376.96875 -939.328125 C 365.6875 -921.503906 360.046875 -900.707031 360.046875 -876.9375 C 360.046875 -854.363281 365.6875 -833.867188 376.96875 -815.453125 C 388.257812 -797.035156 403.410156 -782.773438 422.421875 -772.671875 C 441.441406 -762.566406 462.238281 -757.515625 484.8125 -757.515625 L 903.671875 -757.515625 L 903.671875 -507.984375 L 493.71875 -507.984375 C 468.769531 -507.984375 446.191406 -502.039062 425.984375 -490.15625 C 405.785156 -478.28125 389.742188 -462.832031 377.859375 -443.8125 C 365.984375 -424.800781 360.046875 -402.820312 360.046875 -377.875 C 360.046875 -354.101562 365.984375 -332.414062 377.859375 -312.8125 C 389.742188 -293.207031 405.785156 -278.054688 425.984375 -267.359375 C 446.191406 -256.660156 468.769531 -251.3125 493.71875 -251.3125 L 964.265625 -251.3125 L 964.265625 0 Z M 442.03125 0 "/></g></g></g><g fill="#ff914d" fill-opacity="1"><g transform="translate(3200.20654, 1828.252099)"><g><path d="M 1007.046875 388.5625 C 933.367188 388.5625 870.390625 375.488281 818.109375 349.34375 C 765.828125 323.207031 726.019531 286.375 698.6875 238.84375 C 671.351562 191.3125 657.6875 136.054688 657.6875 73.078125 C 657.6875 60.003906 657.984375 46.632812 658.578125 32.96875 C 659.171875 19.3125 660.660156 4.757812 663.046875 -10.6875 C 571.546875 -11.882812 488.367188 -29.117188 413.515625 -62.390625 C 338.660156 -95.660156 274.195312 -140.8125 220.125 -197.84375 C 166.0625 -254.882812 124.472656 -321.128906 95.359375 -396.578125 C 66.242188 -472.035156 51.6875 -552.539062 51.6875 -638.09375 C 51.6875 -726.03125 66.835938 -808.019531 97.140625 -884.0625 C 127.441406 -960.113281 170.8125 -1026.957031 227.25 -1084.59375 C 283.695312 -1142.226562 351.722656 -1187.382812 431.328125 -1220.0625 C 510.941406 -1252.738281 599.46875 -1269.078125 696.90625 -1269.078125 C 794.34375 -1269.078125 882.867188 -1253.628906 962.484375 -1222.734375 C 1042.097656 -1191.835938 1110.421875 -1147.867188 1167.453125 -1090.828125 C 1224.492188 -1033.796875 1268.164062 -967.847656 1298.46875 -892.984375 C 1328.769531 -818.117188 1343.921875 -736.722656 1343.921875 -648.796875 L 1343.921875 37.4375 C 1343.921875 100.40625 1331.738281 158.625 1307.375 212.09375 C 1283.019531 265.570312 1245.890625 308.351562 1195.984375 340.4375 C 1146.078125 372.519531 1083.097656 388.5625 1007.046875 388.5625 Z M 991 133.6875 C 1013.582031 133.6875 1031.109375 124.472656 1043.578125 106.046875 C 1056.054688 87.628906 1062.296875 63.566406 1062.296875 33.859375 L 1062.296875 -256.671875 C 1037.347656 -235.273438 1015.660156 -213.289062 997.234375 -190.71875 C 978.816406 -168.144531 964.257812 -144.675781 953.5625 -120.3125 C 942.875 -95.945312 934.851562 -70.988281 929.5 -45.4375 C 924.15625 -19.894531 921.484375 6.535156 921.484375 33.859375 C 921.484375 55.253906 924.453125 73.378906 930.390625 88.234375 C 936.335938 103.085938 944.953125 114.375 956.234375 122.09375 C 967.523438 129.820312 979.113281 133.6875 991 133.6875 Z M 686.203125 -263.796875 C 699.273438 -263.796875 711.457031 -264.390625 722.75 -265.578125 C 734.039062 -266.765625 745.625 -268.546875 757.5 -270.921875 C 778.894531 -303.003906 803.847656 -334.789062 832.359375 -366.28125 C 860.878906 -397.769531 892.960938 -428.367188 928.609375 -458.078125 C 964.265625 -487.785156 1003.476562 -515.707031 1046.25 -541.84375 L 1046.25 -657.703125 C 1046.25 -708.796875 1037.632812 -756.328125 1020.40625 -800.296875 C 1003.175781 -844.265625 978.816406 -882.289062 947.328125 -914.375 C 915.835938 -946.457031 879 -971.410156 836.8125 -989.234375 C 794.632812 -1007.054688 748.59375 -1015.96875 698.6875 -1015.96875 C 648.78125 -1015.96875 602.738281 -1006.757812 560.5625 -988.34375 C 518.382812 -969.925781 481.550781 -943.488281 450.0625 -909.03125 C 418.570312 -874.570312 394.210938 -834.46875 376.984375 -788.71875 C 359.753906 -742.96875 351.140625 -693.359375 351.140625 -639.890625 C 351.140625 -586.410156 359.160156 -537.09375 375.203125 -491.9375 C 391.242188 -446.789062 414.410156 -407.28125 444.703125 -373.40625 C 475.003906 -339.539062 510.648438 -313.101562 551.640625 -294.09375 C 592.628906 -275.082031 637.484375 -264.984375 686.203125 -263.796875 Z M 686.203125 -263.796875 "/></g></g></g><g clip-path="url(#75422619c1)"><g clip-path="url(#470df6370a)"><path fill="#ff914d" d="M 4346.113281 1024.628906 L 5129.878906 1024.628906 L 5129.878906 1669.941406 L 4346.113281 1669.941406 Z M 4346.113281 1024.628906 " fill-opacity="1" fill-rule="nonzero"/></g></g></svg>